<svg width="72" height="23" viewBox="0 0 72 23" fill="none" xmlns="http://www.w3.org/2000/svg">
<path d="M71.1312 7.85142C71.1312 7.99539 71.1209 8.1445 71.1004 8.29875C71.0901 8.45301 71.0747 8.6124 71.0541 8.77693H63.9277C64.0099 9.03402 64.1231 9.28082 64.267 9.51734C64.4213 9.74358 64.6064 9.94411 64.8223 10.1189C65.0383 10.2835 65.2799 10.4171 65.5473 10.52C65.825 10.6125 66.1283 10.6588 66.4574 10.6588C66.8585 10.6588 67.2595 10.592 67.6606 10.4583C68.0616 10.3143 68.3958 10.1241 68.6632 9.88755L70.0669 11.2912C69.4499 11.754 68.8432 12.0831 68.2467 12.2784C67.6606 12.4635 67.0384 12.5561 66.3803 12.5561C65.7118 12.5561 65.0846 12.4327 64.4984 12.1859C63.9225 11.9391 63.4186 11.6049 62.9867 11.1833C62.5651 10.7616 62.2309 10.268 61.9841 9.70244C61.7373 9.12657 61.6139 8.51471 61.6139 7.86685C61.6139 7.21899 61.7373 6.61227 61.9841 6.04668C62.2309 5.47081 62.5703 4.97206 63.0022 4.55044C63.4341 4.12882 63.938 3.7946 64.5138 3.5478C65.0897 3.301 65.7067 3.1776 66.3648 3.1776C66.9921 3.1776 67.5937 3.29586 68.1696 3.53238C68.7455 3.75861 69.2545 4.0774 69.6967 4.48874C70.1389 4.90007 70.4885 5.39368 70.7456 5.96955C71.0027 6.53514 71.1312 7.16243 71.1312 7.85142ZM68.802 6.98761C68.6272 6.42202 68.3136 5.96955 67.8611 5.6302C67.4189 5.28056 66.915 5.10574 66.3494 5.10574C65.7941 5.10574 65.2954 5.28056 64.8532 5.6302C64.411 5.96955 64.1025 6.42202 63.9277 6.98761H68.802Z" fill="#FE9B72"/>
<path d="M60.6078 12.1242C60.3815 12.2681 60.1193 12.3761 59.8211 12.4481C59.5229 12.5201 59.2247 12.5561 58.9264 12.5561C58.402 12.5561 57.9598 12.4892 57.5999 12.3555C57.24 12.2321 56.952 12.0368 56.7361 11.7694C56.5201 11.502 56.3607 11.1627 56.2579 10.7513C56.1653 10.34 56.1191 9.85667 56.1191 9.30137V5.3988H54.9467V4.39616C55.6666 4.09794 56.2476 3.65576 56.6898 3.0696C57.1423 2.48344 57.4508 1.72247 57.6153 0.786674H58.3403V3.39353H60.5924V5.3988H58.3403V9.45562C58.3403 9.68185 58.366 9.86696 58.4174 10.0109C58.4791 10.1549 58.5562 10.268 58.6488 10.3503C58.7413 10.4325 58.8442 10.4891 58.9573 10.52C59.0807 10.5508 59.2092 10.5662 59.3429 10.5662C59.5177 10.5662 59.7286 10.5354 59.9754 10.4737C60.2222 10.412 60.433 10.3091 60.6078 10.1652V12.1242Z" fill="#FE9B72"/>
<path d="M54.26 7.86685C54.26 8.53527 54.1366 9.15742 53.8898 9.73329C53.643 10.2989 53.3036 10.7925 52.8717 11.2141C52.4398 11.6254 51.9308 11.9545 51.3446 12.2013C50.7687 12.4378 50.1517 12.5561 49.4936 12.5561C48.8355 12.5561 48.2184 12.4378 47.6426 12.2013C47.0667 11.9545 46.5628 11.6203 46.1309 11.1987C45.699 10.7771 45.3596 10.2835 45.1128 9.71787C44.866 9.142 44.7426 8.52499 44.7426 7.86685C44.7426 7.21899 44.866 6.61227 45.1128 6.04668C45.3699 5.47081 45.7144 4.97206 46.1463 4.55044C46.5782 4.11853 47.0821 3.78432 47.658 3.5478C48.2339 3.301 48.8457 3.1776 49.4936 3.1776C50.1517 3.1776 50.7687 3.301 51.3446 3.5478C51.9308 3.78432 52.4398 4.11339 52.8717 4.53501C53.3036 4.94635 53.643 5.43996 53.8898 6.01583C54.1366 6.5917 54.26 7.20871 54.26 7.86685ZM52.0387 7.86685C52.0387 7.48636 51.9719 7.13158 51.8382 6.80251C51.7045 6.47344 51.5194 6.18551 51.2829 5.9387C51.0567 5.6919 50.7893 5.50166 50.4808 5.36797C50.1723 5.224 49.8432 5.15202 49.4936 5.15202C49.144 5.15202 48.8149 5.224 48.5064 5.36797C48.1979 5.50166 47.9254 5.6919 47.6888 5.9387C47.4626 6.18551 47.2826 6.47344 47.149 6.80251C47.0153 7.13158 46.9484 7.48636 46.9484 7.86685C46.9484 8.24734 47.0153 8.60212 47.149 8.93119C47.2826 9.26026 47.4626 9.54819 47.6888 9.79499C47.9254 10.0418 48.1979 10.2372 48.5064 10.3812C48.8149 10.5148 49.144 10.5817 49.4936 10.5817C49.8432 10.5817 50.1723 10.5148 50.4808 10.3812C50.7893 10.2372 51.0567 10.0418 51.2829 9.79499C51.5194 9.54819 51.7045 9.26026 51.8382 8.93119C51.9719 8.60212 52.0387 8.24734 52.0387 7.86685Z" fill="#FE9B72"/>
<path d="M43.3583 12.3247H41.1371V7.00304C41.1371 6.68425 41.0857 6.4066 40.9829 6.17008C40.8903 5.92328 40.7618 5.72275 40.5972 5.5685C40.4327 5.40396 40.2425 5.2857 40.0265 5.21372C39.8208 5.13145 39.6049 5.09032 39.3786 5.09032C39.0393 5.09032 38.7051 5.15202 38.376 5.27542C38.0469 5.38854 37.7487 5.57364 37.4813 5.83073V12.3247H35.2447V3.40898H37.4813V4.07226C37.615 3.93857 37.7796 3.81517 37.975 3.70205C38.1703 3.58894 38.3709 3.49638 38.5765 3.4244C38.7925 3.34213 39.0084 3.28043 39.2244 3.2393C39.4506 3.19816 39.6666 3.1776 39.8722 3.1776C40.3247 3.1776 40.7566 3.24958 41.168 3.39355C41.5896 3.53752 41.9598 3.75861 42.2786 4.05683C42.6076 4.35505 42.8699 4.74068 43.0653 5.21372C43.2606 5.68676 43.3583 6.24721 43.3583 6.89506V12.3247Z" fill="#FE9B72"/>
<path d="M34.4795 12.3247H31.8418L28.2631 8.3296V12.3247H25.9956L25.9956 0.0874176H28.2631V7.18814L31.379 3.40897H33.9704L30.3147 7.74344L34.4795 12.3247Z" fill="#111111"/>
<path d="M24.6121 9.82585C24.6121 10.268 24.5092 10.6639 24.3036 11.0136C24.0979 11.3529 23.8305 11.6409 23.5015 11.8774C23.1724 12.1036 22.8022 12.2733 22.3908 12.3864C21.9795 12.5098 21.5733 12.5715 21.1723 12.5715C20.4936 12.5715 19.8663 12.4481 19.2904 12.2013C18.7248 11.9442 18.2261 11.538 17.7941 10.9827L19.1361 9.62532C19.4035 9.96467 19.712 10.232 20.0616 10.4274C20.4113 10.6125 20.7866 10.7051 21.1877 10.7051C21.5373 10.7051 21.8253 10.6434 22.0515 10.52C22.288 10.3863 22.4063 10.1909 22.4063 9.93382C22.4063 9.66645 22.2417 9.44536 21.9127 9.27054C21.5836 9.08544 21.1208 8.90548 20.5244 8.73066C20.1748 8.62782 19.8354 8.49928 19.5063 8.34503C19.1773 8.18049 18.8842 7.98511 18.6271 7.75887C18.37 7.52235 18.1644 7.25498 18.0101 6.95676C17.8559 6.65854 17.7787 6.31405 17.7787 5.92328C17.7787 5.49137 17.8764 5.10574 18.0718 4.76639C18.2775 4.41675 18.5397 4.12882 18.8585 3.90258C19.1876 3.66606 19.5578 3.4861 19.9691 3.3627C20.3804 3.2393 20.7969 3.1776 21.2185 3.1776C22.576 3.1776 23.6866 3.69177 24.5504 4.72011L23.2238 6.0621C22.9667 5.74332 22.6736 5.49137 22.3446 5.30627C22.0155 5.12117 21.6556 5.02862 21.2648 5.02862C21.1311 5.02862 20.9872 5.04918 20.8329 5.09032C20.6889 5.12117 20.5501 5.17259 20.4164 5.24457C20.293 5.30627 20.1902 5.39368 20.1079 5.5068C20.0257 5.60963 19.9845 5.72789 19.9845 5.86158C19.9845 6.0981 20.1388 6.30377 20.4473 6.47858C20.7661 6.6534 21.2185 6.82822 21.8047 7.00304C22.1852 7.11616 22.5451 7.26013 22.8845 7.43494C23.2238 7.60976 23.522 7.81543 23.7791 8.05195C24.0362 8.27819 24.2367 8.54041 24.3807 8.83863C24.5349 9.12657 24.6121 9.45564 24.6121 9.82585Z" fill="#111111"/>
<path d="M16.3892 12.3247H14.1526V11.8465C13.7618 12.1139 13.3453 12.299 12.9032 12.4018C12.4712 12.5047 12.0239 12.5561 11.5612 12.5561C11.1293 12.5561 10.7385 12.4893 10.3889 12.3556C10.0392 12.2322 9.73585 12.0522 9.47877 11.8157C9.22168 11.5689 9.02115 11.281 8.87719 10.9519C8.7435 10.6228 8.67666 10.2577 8.67666 9.8567C8.67666 9.35281 8.78463 8.91576 9.00059 8.54556C9.22682 8.16507 9.53018 7.85142 9.91067 7.60462C10.2912 7.34753 10.7333 7.15729 11.2372 7.03389C11.7514 6.91049 12.3016 6.84879 12.8877 6.84879H14.168C14.168 6.32433 13.9983 5.90785 13.659 5.59935C13.3196 5.29085 12.8312 5.13659 12.1936 5.13659C11.8851 5.13659 11.5663 5.19315 11.2372 5.30627C10.9082 5.41939 10.5791 5.62506 10.25 5.92328L8.93889 4.59671C9.41192 4.14424 9.95695 3.7946 10.574 3.5478C11.2012 3.301 11.844 3.1776 12.5021 3.1776C13.1191 3.1776 13.6693 3.27529 14.1526 3.47068C14.6359 3.66606 15.0267 3.91801 15.3249 4.22651C15.7157 4.61728 15.9882 5.05433 16.1424 5.53765C16.307 6.02097 16.3892 6.63798 16.3892 7.38867V12.3247ZM14.1526 10.1035V8.45301H13.1345C12.826 8.45301 12.533 8.47357 12.2553 8.51471C11.9879 8.55584 11.7514 8.62782 11.5457 8.73066C11.3504 8.82321 11.191 8.94661 11.0676 9.10086C10.9544 9.25511 10.8979 9.44022 10.8979 9.65617C10.8979 9.96467 11.0161 10.2166 11.2527 10.412C11.4995 10.6074 11.8131 10.7051 12.1936 10.7051C12.5227 10.7051 12.8466 10.6537 13.1654 10.5508C13.4945 10.448 13.8235 10.2989 14.1526 10.1035Z" fill="#111111"/>
<path d="M9.23968 2.12867H5.83071V12.3247H3.40896V2.12867H0V0H9.23968V2.12867Z" fill="#111111"/>
<path d="M26.1714 13.7644C26.1714 16.0554 27.0815 18.2525 28.7014 19.8724C30.3214 21.4924 32.5185 22.4025 34.8095 22.4025C37.1004 22.4025 39.2976 21.4924 40.9175 19.8724C42.5375 18.2525 43.4476 16.0554 43.4476 13.7644L41.4219 13.7644C41.4219 15.5181 40.7252 17.2 39.4851 18.44C38.2451 19.6801 36.5632 20.3768 34.8095 20.3768C33.0558 20.3768 31.3739 19.6801 30.1338 18.44C28.8938 17.2 28.1971 15.5181 28.1971 13.7644H26.1714Z" fill="#FE9B72"/>
<g clip-path="url(#clip0_1_32)">
<path d="M26.1714 13.7644C26.1714 16.0554 27.0815 18.2525 28.7014 19.8724C30.3214 21.4924 32.5185 22.4025 34.8095 22.4025C37.1004 22.4025 39.2976 21.4924 40.9175 19.8724C42.5375 18.2525 43.4476 16.0554 43.4476 13.7644L41.4219 13.7644C41.4219 15.5181 40.7252 17.2 39.4851 18.44C38.2451 19.6801 36.5632 20.3768 34.8095 20.3768C33.0558 20.3768 31.3739 19.6801 30.1338 18.44C28.8937 17.2 28.1971 15.5181 28.1971 13.7644H26.1714Z" fill="#111111"/>
</g>
<defs>
<clipPath id="clip0_1_32">
<rect width="8.63809" height="17.2762" fill="white" transform="translate(34.8095 5.12629)"/>
</clipPath>
</defs>
</svg>
